<svg width="58px" height="57px" viewBox="0 0 58 57" version="1.1" xmlns="http://www.w3.org/2000/svg" xmlns:xlink="http://www.w3.org/1999/xlink">
    <!-- Generator: Sketch 45.1 (43504) - http://www.bohemiancoding.com/sketch -->
    <svg id="Layer_1" data-name="Layer 1" xmlns="http://www.w3.org/2000/svg" viewBox="0 0 285.99 268.29"><defs><style>.cls-1{fill:#0061aa;}.cls-2{fill:#fff;}.cls-3{fill:#ee403d;}</style></defs><title>ADT Canada Logo RGB_Stroke LG</title><polygon class="cls-1" points="169.68 28.29 240 98.56 240 198.02 169.68 268.29 70.32 268.29 0 198.02 0 98.56 70.32 28.29 169.68 28.29"/><polygon class="cls-2" points="205.82 109.66 142.87 109.66 142.87 126.27 165.78 126.27 165.78 187.15 182.72 187.15 182.72 126.27 205.82 126.27 205.82 109.66"/><path class="cls-2" d="M157.53,130H139.84v-16.4a41.06,41.06,0,0,0-16.74-3.46H96.76v38.6l19.93,39.11h6.41c22.3,0,39-16.5,39-38.91A40,40,0,0,0,157.53,130Zm-34.43,40.8h-9.4V127.09h9.4c12.9,0,22.08,8.85,22.08,21.86S136,170.81,123.1,170.81Z" transform="translate(0 -0.71)"/><path class="cls-2" d="M90.94,179.91l4,7.94h18.32L73.79,110.33,34.18,187.86H52.5l4.13-7.94ZM73.79,146.34l8.9,17.48H64.78Z" transform="translate(0 -0.71)"/><path class="cls-2" d="M168.85,31,238,100.1v97.8L168.85,267H71.14L2,197.9V100.1L71.15,31h97.71m.83-2H70.32L0,99.27v99.46L70.32,269h99.37L240,198.73V99.27L169.68,29Z" transform="translate(0 -0.71)"/><g id="_Group_" data-name="&lt;Group&gt;"><path class="cls-3" d="M250.39,68.69l0-1c.08-2,.13-4.08.17-6.14.05-2.3.1-4.67.21-7,0-.13,0-.52,0-.58l-.82.17c-2.41.48-4.85.95-7.3,1.41-2,.38-4,.76-6,1.15L235,57l.65-1.69c.16-.41.34-.85.52-1.3s.35-.85.52-1.3c.09-.24.2-.48.3-.73a6.39,6.39,0,0,0,.56-1.68c.06-.61-.22-.88-1-1.49L236,48.4c-1.68-1.39-3.43-2.81-5.19-4.22-2.61-2.11-5.32-4.29-7.72-6.36l-1.22-1,1.48-.63.93-.38,1-.4.44-.17a8.06,8.06,0,0,0,1-.43,4.82,4.82,0,0,0-.29-1.4l-.12-.42-.73-2.65c-.47-1.72-.95-3.44-1.36-5l-.43-1.6,1.62.36c1.85.42,4.14.9,6,1.27l.32.07a7.62,7.62,0,0,0,1.44.21c.2,0,.45,0,.54-.14a5.59,5.59,0,0,0,.45-1.09c.08-.23.16-.46.23-.65l.16-.4c.21-.52.42-1,.6-1.57l.53-1.55,1.14,1.18s.36.37,1,1a67.79,67.79,0,0,0,4.57,5.23l.22.22a9.27,9.27,0,0,0,.72.68h0c0-.14,0-.29-.08-.47-.42-2.06-.84-4.14-1.26-6.23-.63-3.15-1.26-6.3-1.92-9.37l-.51-2.37,2,1.33s2.92,1.91,4.35,2.77l.26.17a4,4,0,0,0,.75.41,6.39,6.39,0,0,0,.67-1.31c.1-.24.19-.45.27-.6l2.75-5.5c.19-.37.37-.76.55-1.14.28-.59.55-1.19.86-1.75l.91-1.67.86,1.69c.92,1.81,1.88,3.65,2.84,5.5.7,1.35,1.41,2.7,2.11,4.06.06.12.13.28.2.44l.12.28a6,6,0,0,0,.73-.39l1.6-.93c1.13-.66,2.3-1.34,3.39-1.92l1.91-1-.47,2.11q-.7,3.14-1.39,6.31-1,4.61-2.05,9.25c0,.18-.07.34-.1.48a12.17,12.17,0,0,0,.91-1c.2-.24.4-.48.6-.72l1.62-1.86c1.15-1.33,2.33-2.7,3.48-3.9l1.12-1.18.55,1.53c.11.32.24.64.36,1s.27.71.41,1.08.18.56.25.79c.13.41.24.78.41,1.23a.82.82,0,0,0,.42.07,7.84,7.84,0,0,0,1.67-.29l.48-.11c1.83-.41,3.91-.86,5.75-1.24l1.63-.34-.47,1.6c-.57,2-1.17,4.23-1.76,6.43l-.6,2.26a4.45,4.45,0,0,0-.16.76l.07,0a8.25,8.25,0,0,0,1.85.77c.49.16,1,.33,1.45.54l1.48.67-1.26,1c-1.71,1.39-3.48,2.86-5.26,4.34-2.64,2.19-5.36,4.46-8,6.54l-.44.32c-.36.26-.9.64-.89.89a3.79,3.79,0,0,0,.25.71l.16.39c.3.81.64,1.69,1,2.53l.58,1.49.61,1.6-1.69-.25c-2.27-.34-4.59-.76-6.84-1.18-1.49-.27-3-.55-4.49-.8l-1.1-.2c-.51-.1-1-.19-1.5-.26,0,2.55.1,5.18.18,7.74.07,2,.14,4,.17,6l0,1Z" transform="translate(0 -0.71)"/><path class="cls-2" d="M252.83,5c1.59,3.14,3.3,6.34,5,9.56.21.41.44,1.19.77,1.28l.22,0a3.84,3.84,0,0,0,1.64-.69c1.59-.91,3.25-1.91,4.76-2.71C264,17.6,262.92,22.82,261.73,28c-.11.49-.45,2,.08,2.17l.18,0a2.16,2.16,0,0,0,1.17-.65,24,24,0,0,0,1.7-1.94c1.66-1.88,3.41-4,5.07-5.73.23.65.51,1.33.77,2.05s.4,1.35.7,2.13a1.35,1.35,0,0,0,1.32.62,11.5,11.5,0,0,0,2.36-.43c1.82-.41,3.9-.86,5.73-1.24-.77,2.65-1.58,5.79-2.36,8.71-.24.89-.39,1.43.31,1.9a24.42,24.42,0,0,0,3.45,1.4c-4.27,3.47-8.86,7.4-13.24,10.88-.64.51-1.76,1.07-1.7,2.05a5.91,5.91,0,0,0,.47,1.39c.49,1.31,1.07,2.78,1.55,4-3.73-.55-7.49-1.33-11.31-2a31.1,31.1,0,0,0-3.76-.58c0,4.85.27,9.89.35,14.83h-3.14c.18-4.35.18-8.74.39-13.16a4,4,0,0,0-.08-1.74,11.67,11.67,0,0,0-1.9.31c-4.38.88-8.88,1.69-13.28,2.56.3-.79.68-1.66,1-2.6a11.15,11.15,0,0,0,.93-2.67c.15-1.49-1-2-1.9-2.75-4.22-3.5-8.92-7.15-12.89-10.57l1.9-.78c.55-.23,1.63-.57,1.86-.93.44-.67-.07-1.93-.27-2.67-.69-2.51-1.46-5.28-2.09-7.63,1.75.39,4.05.89,6,1.28a10.54,10.54,0,0,0,2,.3,1.57,1.57,0,0,0,1.33-.53,10.14,10.14,0,0,0,.81-2c.27-.68.54-1.33.77-2,0,0,.35.36.93,1a67.42,67.42,0,0,0,4.61,5.27c.29.29.59.62,1,1s.76.7,1.18.7h.09c.64-.12.38-1.59.27-2.13-1.06-5.17-2.08-10.49-3.17-15.6,0,0,2.92,1.91,4.38,2.79a3.66,3.66,0,0,0,1.62.74H247c.8-.07,1.33-1.8,1.67-2.48.94-1.88,1.85-3.71,2.75-5.5.47-.94.89-1.94,1.39-2.87M252.9.71,251.07,4c-.33.6-.62,1.22-.89,1.81-.17.37-.35.75-.53,1.11l-1.3,2.59-1.45,2.91c-.09.18-.19.41-.3.67l-.14.33-.11-.07c-1.41-.85-4.29-2.73-4.32-2.75L238,8l1,4.75c.66,3.07,1.3,6.27,1.92,9.37l.68,3.4c-1.09-1.2-2.1-2.44-3.08-3.65l0,0,0,0c-.61-.68-1-1.06-1-1.06l-2.27-2.35-1.06,3.1c-.17.5-.37,1-.58,1.52l-.16.4c-.08.2-.16.44-.25.7s-.12.36-.19.54a9.35,9.35,0,0,1-1.08-.18l-.33-.07c-1.86-.37-4.15-.86-6-1.27l-3.23-.73.86,3.2c.42,1.56.9,3.31,1.38,5l.71,2.59.13.44c0,.13.1.32.15.5l-.24.09-.47.19-1,.39-1,.39-3,1.26,2.44,2.1c2.42,2.08,5.13,4.26,7.75,6.38,1.72,1.39,3.5,2.83,5.17,4.21l.55.43a4.13,4.13,0,0,1,.64.54s0,0,0,0a5.93,5.93,0,0,1-.48,1.38c-.11.26-.22.51-.32.76-.17.44-.35.86-.51,1.27s-.37.91-.54,1.33l-1.29,3.38,3.55-.7c2-.39,4-.77,6-1.15,2.25-.42,4.57-.86,6.83-1.31-.09,2.13-.14,4.27-.18,6.34s-.09,4.09-.17,6.12l-.09,2.08h7.25l0-2c0-2-.1-4-.17-6-.07-2.15-.15-4.35-.17-6.51l.3.06,1.12.21c1.5.25,3,.53,4.48.8,2.25.41,4.58.84,6.87,1.18l3.38.5-1.22-3.19-.58-1.51c-.32-.83-.66-1.7-1-2.5l-.17-.42-.06-.14.35-.26.48-.36c2.64-2.09,5.36-4.36,8-6.55,1.75-1.45,3.55-2.95,5.26-4.34l2.51-2-3-1.33a16.19,16.19,0,0,0-1.54-.57c-.38-.13-.77-.26-1.1-.4L281,32c.58-2.19,1.18-4.45,1.75-6.41l.93-3.19-3.26.68c-1.66.34-3.71.79-5.76,1.24l-.5.12a11.26,11.26,0,0,1-1.12.24l-.18-.57c-.07-.23-.15-.48-.24-.77V23.3c-.14-.38-.28-.75-.42-1.12s-.24-.63-.35-.93l-1.1-3.05-2.23,2.35c-1.16,1.22-2.35,2.59-3.5,3.93l-.55.63q.65-2.93,1.29-5.85.7-3.19,1.4-6.34l.94-4.21-3.82,2c-1.12.59-2.3,1.28-3.44,1.94l-1.35.79q-1-1.94-2-3.86c-.94-1.81-1.92-3.68-2.83-5.48L252.9.71Z" transform="translate(0 -0.71)"/></g></svg>
</svg>