<?xml version="1.0" encoding="utf-8"?>
<!-- Generator: Adobe Illustrator 26.0.1, SVG Export Plug-In . SVG Version: 6.00 Build 0)  -->
<!DOCTYPE svg PUBLIC "-//W3C//DTD SVG 1.1//EN" "http://www.w3.org/Graphics/SVG/1.1/DTD/svg11.dtd" [
	<!ENTITY ns_extend "http://ns.adobe.com/Extensibility/1.0/">
	<!ENTITY ns_ai "http://ns.adobe.com/AdobeIllustrator/10.0/">
	<!ENTITY ns_graphs "http://ns.adobe.com/Graphs/1.0/">
	<!ENTITY ns_vars "http://ns.adobe.com/Variables/1.0/">
	<!ENTITY ns_imrep "http://ns.adobe.com/ImageReplacement/1.0/">
	<!ENTITY ns_sfw "http://ns.adobe.com/SaveForWeb/1.0/">
	<!ENTITY ns_custom "http://ns.adobe.com/GenericCustomNamespace/1.0/">
	<!ENTITY ns_adobe_xpath "http://ns.adobe.com/XPath/1.0/">
]>
<svg version="1.1" id="Layer_1" xmlns:x="&ns_extend;" xmlns:i="&ns_ai;" xmlns:graph="&ns_graphs;"
	 xmlns="http://www.w3.org/2000/svg" xmlns:xlink="http://www.w3.org/1999/xlink" x="0px" y="0px" viewBox="0 0 143 13"
	 style="enable-background:new 0 0 143 13;" xml:space="preserve">
<style type="text/css">
	.st0{enable-background:new    ;}
	.st1{fill:#42DBA2;}
</style>
<metadata>
	<sfw  xmlns="&ns_sfw;">
		<slices></slices>
		<sliceSourceBounds  bottomLeftOrigin="true" height="8.1" width="89" x="27" y="1.8"></sliceSourceBounds>
	</sfw>
</metadata>
<g class="st0">
	<path class="st1" d="M29.2,7.6c-1.1-0.4-1.8-1.1-1.8-2.2c0-1.5,1.2-2.2,2.5-2.2c1.1,0,1.9,0.5,2.4,1.1l-1.1,1.1
		c-0.4-0.5-0.9-0.7-1.5-0.7C29.2,4.7,29,5,29,5.3c0,0.3,0.2,0.6,0.8,0.8l1.1,0.5c1,0.4,1.8,1,1.8,2.2c0,1.4-1.1,2.3-2.8,2.3
		c-1.3,0-2.3-0.7-2.8-1.5l1.1-1.1c0.5,0.7,1.2,1.1,1.9,1.1c0.8,0,1.1-0.4,1.1-0.8c0-0.3-0.2-0.6-0.8-0.8L29.2,7.6z"/>
	<path class="st1" d="M39.9,3.3v1.5h-2.2V11h-1.6V4.8h-2.2V3.3H39.9z"/>
	<path class="st1" d="M47.3,11h-1.7l-0.7-1.5h-2.8L41.4,11h-1.7l3.7-7.9h0.2L47.3,11z M42.7,8.1h1.6l-0.8-1.8L42.7,8.1z"/>
	<path class="st1" d="M51.2,8.5h-0.9V11h-1.6V3.3h3.1c1.8,0,3,0.9,3,2.5c0,1.2-0.7,2.2-1.9,2.6l2.1,2.6h-2L51.2,8.5z M50.4,4.8V7
		h1.3c1.1,0,1.6-0.4,1.6-1.2c0-0.6-0.4-1-1.6-1H50.4z"/>
	<path class="st1" d="M62.1,3.3v1.5h-2.2V11h-1.6V4.8h-2.2V3.3H62.1z"/>
	<path class="st1" d="M69,8.6V11h-1.6V3.3h3.1c1.8,0,3,1,3,2.6s-1.2,2.7-3,2.7H69z M69,4.8v2.2h1.2c1.1,0,1.7-0.4,1.7-1.1
		c0-0.8-0.6-1.1-1.7-1.1H69z"/>
	<path class="st1" d="M75.2,3.3h1.6v6.2h3.5V11h-5.2V3.3z"/>
	<path class="st1" d="M89,11h-1.7l-0.7-1.5h-2.8L83.1,11h-1.7l3.7-7.9h0.2L89,11z M84.3,8.1H86l-0.8-1.8L84.3,8.1z"/>
	<path class="st1" d="M91.7,6.5l1.6-3.2h1.8l-2.6,5V11h-1.6V8.3l-2.6-5h1.8L91.7,6.5z"/>
	<path class="st1" d="M96.6,3.3h1.6V11h-1.6V3.3z"/>
	<path class="st1" d="M101.9,6.5V11h-1.6V3.1h0.2l4.9,4.7V3.3h1.6v7.9h-0.2L101.9,6.5z"/>
	<path class="st1" d="M112.8,6.7h3.1v3.1c-0.7,0.7-1.8,1.3-3.2,1.3c-2.2,0-4-1.6-4-4c0-2.5,1.8-4,4-4c1.3,0,2.4,0.6,3.1,1.5
		l-1.1,1.1c-0.5-0.6-1.2-1-2-1c-1.1,0-2.3,0.8-2.3,2.4c0,1.5,1.1,2.5,2.4,2.5c0.6,0,1.1-0.1,1.6-0.5V8.2h-1.5V6.7z"/>
</g>
</svg>
