<?xml version="1.0" encoding="utf-8"?>
<!-- Generator: Adobe Illustrator 26.0.1, SVG Export Plug-In . SVG Version: 6.00 Build 0)  -->
<!DOCTYPE svg PUBLIC "-//W3C//DTD SVG 1.1//EN" "http://www.w3.org/Graphics/SVG/1.1/DTD/svg11.dtd" [
	<!ENTITY ns_extend "http://ns.adobe.com/Extensibility/1.0/">
	<!ENTITY ns_ai "http://ns.adobe.com/AdobeIllustrator/10.0/">
	<!ENTITY ns_graphs "http://ns.adobe.com/Graphs/1.0/">
	<!ENTITY ns_vars "http://ns.adobe.com/Variables/1.0/">
	<!ENTITY ns_imrep "http://ns.adobe.com/ImageReplacement/1.0/">
	<!ENTITY ns_sfw "http://ns.adobe.com/SaveForWeb/1.0/">
	<!ENTITY ns_custom "http://ns.adobe.com/GenericCustomNamespace/1.0/">
	<!ENTITY ns_adobe_xpath "http://ns.adobe.com/XPath/1.0/">
]>
<svg version="1.1" id="Layer_1" xmlns:x="&ns_extend;" xmlns:i="&ns_ai;" xmlns:graph="&ns_graphs;"
	 xmlns="http://www.w3.org/2000/svg" xmlns:xlink="http://www.w3.org/1999/xlink" x="0px" y="0px" viewBox="0 0 255 113.8"
	 style="enable-background:new 0 0 255 113.8;" xml:space="preserve">
<style type="text/css">
	.st0{enable-background:new    ;}
	.st1{fill:#FFFFFF;}
	.st2{fill:#42DBA2;}
</style>
<metadata>
	<sfw  xmlns="&ns_sfw;">
		<slices></slices>
		<sliceSourceBounds  bottomLeftOrigin="true" height="90.9" width="250.8" x="0.6" y="16.7"></sliceSourceBounds>
	</sfw>
</metadata>
<g id="Copy" transform="translate(-23.902 -278)">
	<g class="st0">
		<path class="st1" d="M28.7,291.1v8.9h-3.3v-15.8h0.3l9.9,9.4v-9h3.3v15.8h-0.3L28.7,291.1z"/>
		<path class="st1" d="M44.3,295.4c0.2,1.1,1,2,2.4,2c1.1,0,2-0.4,2.6-1.3l2.1,1.9c-0.9,1.2-2.3,2.2-4.6,2.2c-3.2,0-5.7-2.2-5.7-5.6
			c0-3.3,2.2-5.7,5.3-5.7c3.5,0,5.2,2.8,5.2,5.5c0,0.4,0,0.9,0,0.9H44.3z M44.5,293.3h3.9c-0.1-0.9-0.8-1.6-1.8-1.6
			C45.4,291.7,44.7,292.4,44.5,293.3z"/>
		<path class="st1" d="M60.2,289h0.3l2.8,4.9l1.9-4.6h3.3l-4.6,11h-0.3l-3.3-6l-3.3,6h-0.3l-4.6-11h3.3l1.9,4.6L60.2,289z"/>
		<path class="st1" d="M77.2,304.3L79,300l-4.2-10.8h3.5l2.4,6.7l2.5-6.7h3.3l-6,15H77.2z"/>
		<path class="st1" d="M90.3,295.4c0.2,1.1,1,2,2.4,2c1.1,0,2-0.4,2.6-1.3l2.1,1.9c-0.9,1.2-2.3,2.2-4.6,2.2c-3.2,0-5.7-2.2-5.7-5.6
			c0-3.3,2.2-5.7,5.3-5.7c3.5,0,5.2,2.8,5.2,5.5c0,0.4,0,0.9,0,0.9H90.3z M90.4,293.3h3.9c-0.1-0.9-0.8-1.6-1.8-1.6
			C91.3,291.7,90.6,292.4,90.4,293.3z"/>
		<path class="st1" d="M104.8,289c1.2,0,2.4,0.4,3,1v-0.7h3.1V300h-3.1v-0.8c-0.6,0.5-1.6,1-3,1c-3.1,0-5.7-2.4-5.7-5.6
			S101.6,289,104.8,289z M105,297.3c1.7,0,2.8-1.3,2.8-2.8c0-1.5-1-2.7-2.8-2.7c-1.5,0-2.7,1.2-2.7,2.7
			C102.3,296,103.5,297.3,105,297.3z"/>
		<path class="st1" d="M120.3,292.1h-0.5c-1.7,0-3,1.1-3,3.4v4.5h-3.1v-10.8h3.1v1c0.6-0.7,1.6-1.1,2.7-1.1c0.4,0,0.5,0,0.8,0V292.1
			z"/>
		<path class="st1" d="M119.1,303l2.1-5.7h3.4L122,303H119.1z"/>
	</g>
	<g class="st0">
		<path class="st2" d="M28.7,315.1v8.9h-3.3v-15.8h0.3l9.9,9.4v-9h3.3v15.8h-0.3L28.7,315.1z"/>
		<path class="st2" d="M44.3,319.4c0.2,1.1,1,2,2.4,2c1.1,0,2-0.4,2.6-1.3l2.1,1.9c-0.9,1.2-2.3,2.2-4.6,2.2c-3.2,0-5.7-2.2-5.7-5.6
			c0-3.3,2.2-5.7,5.3-5.7c3.5,0,5.2,2.8,5.2,5.5c0,0.4,0,0.9,0,0.9H44.3z M44.5,317.3h3.9c-0.1-0.9-0.8-1.6-1.8-1.6
			C45.4,315.7,44.7,316.4,44.5,317.3z"/>
		<path class="st2" d="M60.2,313h0.3l2.8,4.9l1.9-4.6h3.3l-4.6,11h-0.3l-3.3-6l-3.3,6h-0.3l-4.6-11h3.3l1.9,4.6L60.2,313z"/>
		<path class="st2" d="M82.6,313h0.3l2.8,4.9l1.9-4.6h3.3l-4.6,11h-0.3l-3.3-6l-3.3,6h-0.3l-4.6-11H78l1.9,4.6L82.6,313z"/>
		<path class="st2" d="M97.1,313c1.2,0,2.4,0.4,3,1v-0.7h3.1V324h-3.1v-0.8c-0.6,0.5-1.6,1-3,1c-3.1,0-5.7-2.4-5.7-5.6
			S94,313,97.1,313z M97.4,321.3c1.7,0,2.8-1.3,2.8-2.8c0-1.5-1-2.7-2.8-2.7c-1.5,0-2.7,1.2-2.7,2.7C94.7,320,95.8,321.3,97.4,321.3
			z"/>
		<path class="st2" d="M107.2,328.3l1.8-4.3l-4.2-10.8h3.5l2.4,6.7l2.5-6.7h3.3l-6,15H107.2z"/>
		<path class="st2" d="M124.6,320.2v-4.1h-1.4v-2.9h1.4v-3h3.1v3h2.4v2.9h-2.4v3.7c0,1.1,0.5,1.3,1.4,1.3h0.9v2.9c0,0-0.8,0-1.7,0
			C125.8,324,124.6,322.7,124.6,320.2z"/>
		<path class="st2" d="M137.3,313c3.2,0,5.7,2.4,5.7,5.7s-2.5,5.6-5.7,5.6c-3.2,0-5.7-2.4-5.7-5.6S134.1,313,137.3,313z
			 M137.3,321.3c1.5,0,2.5-1.1,2.5-2.7s-1.1-2.7-2.5-2.7s-2.5,1.1-2.5,2.7S135.8,321.3,137.3,321.3z"/>
		<path class="st2" d="M151.7,320.2v-4.1h-1.4v-2.9h1.4v-3h3.1v3h2.4v2.9h-2.4v3.7c0,1.1,0.5,1.3,1.4,1.3h0.9v2.9c0,0-0.8,0-1.7,0
			C152.9,324,151.7,322.7,151.7,320.2z"/>
		<path class="st2" d="M166.2,316.1h-0.5c-1.7,0-3,1.1-3,3.4v4.5h-3.1v-10.8h3.1v1c0.6-0.7,1.6-1.1,2.7-1.1c0.4,0,0.5,0,0.8,0V316.1
			z"/>
		<path class="st2" d="M170.1,319.4c0.2,1.1,1,2,2.4,2c1.1,0,2-0.4,2.6-1.3l2.1,1.9c-0.9,1.2-2.3,2.2-4.6,2.2
			c-3.2,0-5.7-2.2-5.7-5.6c0-3.3,2.2-5.7,5.3-5.7c3.5,0,5.2,2.8,5.2,5.5c0,0.4,0,0.9,0,0.9H170.1z M170.2,317.3h3.9
			c-0.1-0.9-0.8-1.6-1.8-1.6C171.1,315.7,170.4,316.4,170.2,317.3z"/>
		<path class="st2" d="M184.6,313c1.2,0,2.4,0.4,3,1v-0.7h3.1V324h-3.1v-0.8c-0.6,0.5-1.6,1-3,1c-3.1,0-5.7-2.4-5.7-5.6
			S181.5,313,184.6,313z M184.8,321.3c1.7,0,2.8-1.3,2.8-2.8c0-1.5-1-2.7-2.8-2.7c-1.5,0-2.7,1.2-2.7,2.7
			C182.2,320,183.3,321.3,184.8,321.3z"/>
		<path class="st2" d="M193.9,320.2v-4.1h-1.4v-2.9h1.4v-3h3.1v3h2.4v2.9H197v3.7c0,1.1,0.5,1.3,1.4,1.3h0.9v2.9c0,0-0.8,0-1.7,0
			C195.1,324,193.9,322.7,193.9,320.2z"/>
		<path class="st2" d="M221.9,324h-3.4l-1.4-2.9h-5.7l-1.4,2.9h-3.3l7.3-15.8h0.3L221.9,324z M212.7,318.2h3.2l-1.6-3.6L212.7,318.2
			z"/>
		<path class="st2" d="M223.7,308.6h5.1c4.2,0,8.6,2,8.6,7.6c0,5.6-4.4,7.8-8.6,7.8h-5.1V308.6z M226.9,311.6v9.4h1.3
			c3.3,0,5.7-1.2,5.7-4.8c0-3.5-2.5-4.6-5.8-4.6H226.9z"/>
		<path class="st2" d="M249.6,317.6h-6.5v6.4h-3.3v-15.4h3.3v6h6.5v-6h3.3V324h-3.3V317.6z"/>
		<path class="st2" d="M255.9,308.6h5.1c4.2,0,8.6,2,8.6,7.6c0,5.6-4.4,7.8-8.6,7.8h-5.1V308.6z M259.2,311.6v9.4h1.3
			c3.3,0,5.7-1.2,5.7-4.8c0-3.5-2.5-4.6-5.8-4.6H259.2z"/>
		<path class="st2" d="M273.3,320.5c1.1,0,1.9,0.8,1.9,1.9c0,1.1-0.9,1.9-1.9,1.9c-1.1,0-1.9-0.8-1.9-1.9
			C271.4,321.3,272.2,320.5,273.3,320.5z"/>
	</g>
	<g class="st0">
		<path class="st1" d="M33.1,341.6v1.7h-3.4v9.5h-1.9v-9.5h-3.4v-1.7H33.1z"/>
		<path class="st1" d="M36.6,352.8h-1.8v-11.2h1.8v3.9c0.4-0.4,1.1-0.7,2-0.7c1.8,0,3.2,1.2,3.2,3.5v4.6h-1.8v-4.6
			c0-1.1-0.5-1.8-1.6-1.8c-1.1,0-1.7,0.8-1.7,2V352.8z"/>
		<path class="st1" d="M45.4,349.4c0.1,1.2,0.9,1.9,2.1,1.9c0.9,0,1.6-0.4,2-1.1l1.2,1.2c-0.7,0.9-1.6,1.6-3.2,1.6
			c-2.4,0-3.9-1.7-3.9-4c0-2.3,1.4-4.2,3.7-4.2c2.5,0,3.6,2,3.6,4c0,0.3,0,0.6,0,0.6H45.4z M45.5,348h3.3c0-0.7-0.4-1.5-1.6-1.5
			C46.2,346.4,45.6,347.2,45.5,348z"/>
		<path class="st1" d="M60.9,344.8c2.3,0,4,1.8,4,4.1c0,2.4-1.8,4.1-4,4.1c-2.3,0-4-1.7-4-4.1C56.8,346.5,58.6,344.8,60.9,344.8z
			 M60.9,351.3c1.3,0,2.2-1,2.2-2.4c0-1.4-0.9-2.4-2.2-2.4c-1.3,0-2.2,1-2.2,2.4C58.7,350.3,59.6,351.3,60.9,351.3z"/>
		<path class="st1" d="M68.6,352.8h-1.8v-7.8h1.8v0.6c0.4-0.4,1.1-0.8,2-0.8c1.9,0,3.1,1.2,3.1,3.5v4.6h-1.8v-4.6
			c0-1.1-0.5-1.8-1.6-1.8c-1.1,0-1.7,0.8-1.7,2V352.8z"/>
		<path class="st1" d="M75.9,341.6h1.8v11.2h-1.8V341.6z"/>
		<path class="st1" d="M82.1,352.7l-3-7.7h2.1l1.9,5.4l1.9-5.4h2l-4.3,10.9h-1.9L82.1,352.7z"/>
		<path class="st1" d="M96.4,344.8c1,0,1.7,0.4,2.2,0.8v-3.9h1.8v11.2h-1.8v-0.7c-0.5,0.5-1.1,0.9-2.2,0.9c-2.3,0-3.8-1.7-3.8-4.1
			C92.6,346.5,94.2,344.8,96.4,344.8z M96.6,346.4c-1.4,0-2.1,1.2-2.1,2.5s0.7,2.5,2.1,2.5c1.4,0,2.1-1.2,2.1-2.5
			S98,346.4,96.6,346.4z"/>
		<path class="st1" d="M106.4,344.8c2.3,0,4,1.8,4,4.1c0,2.4-1.8,4.1-4,4.1c-2.3,0-4-1.7-4-4.1C102.3,346.5,104.1,344.8,106.4,344.8
			z M106.4,351.3c1.3,0,2.2-1,2.2-2.4c0-1.4-0.9-2.4-2.2-2.4c-1.3,0-2.2,1-2.2,2.4C104.2,350.3,105.1,351.3,106.4,351.3z"/>
		<path class="st1" d="M113.7,348.9c0,1.4,0.9,2.4,2.1,2.4c1,0,1.5-0.5,2-1.2l1.2,1.2c-0.6,0.9-1.7,1.7-3.3,1.7
			c-2.2,0-3.9-1.7-3.9-4.1c0-2.4,1.8-4.1,3.9-4.1c1.4,0,2.4,0.6,3.2,1.6l-1.3,1.2c-0.5-0.7-1-1.1-1.9-1.1
			C114.6,346.4,113.7,347.4,113.7,348.9z"/>
		<path class="st1" d="M120.9,350v-3.4h-1.2v-1.6h1.2v-2.2h1.8v2.2h1.9v1.6h-1.9v3.2c0,1.1,0.3,1.4,1.3,1.4c0.2,0,0.6,0,0.6,0v1.6
			c0,0-0.4,0-1,0C121.6,352.8,120.9,352,120.9,350z"/>
		<path class="st1" d="M129.8,344.8c2.3,0,4,1.8,4,4.1c0,2.4-1.8,4.1-4,4.1c-2.3,0-4-1.7-4-4.1C125.7,346.5,127.5,344.8,129.8,344.8
			z M129.8,351.3c1.3,0,2.2-1,2.2-2.4c0-1.4-0.9-2.4-2.2-2.4c-1.3,0-2.2,1-2.2,2.4C127.6,350.3,128.5,351.3,129.8,351.3z"/>
		<path class="st1" d="M140.2,346.6c0,0-0.1,0-0.3,0c-1.8,0-2.4,1-2.4,3.2v3.1h-1.8v-7.8h1.8v0.8c0.6-0.7,1.3-1,2.4-1
			c0,0,0.2,0,0.4,0V346.6z"/>
		<path class="st1" d="M140.4,347.7h4v1.7h-4V347.7z"/>
		<path class="st1" d="M149.9,353c-1,0-1.7-0.4-2.2-0.8v3.7h-1.8v-10.9h1.8v0.7c0.5-0.5,1.1-0.9,2.2-0.9c2.3,0,3.8,1.8,3.8,4.1
			C153.7,351.2,152.1,353,149.9,353z M149.7,351.4c1.4,0,2.1-1.2,2.1-2.5s-0.7-2.5-2.1-2.5c-1.4,0-2.1,1.2-2.1,2.5
			S148.3,351.4,149.7,351.4z"/>
		<path class="st1" d="M160,346.6c0,0-0.1,0-0.3,0c-1.8,0-2.4,1-2.4,3.2v3.1h-1.8v-7.8h1.8v0.8c0.6-0.7,1.3-1,2.4-1c0,0,0.2,0,0.4,0
			V346.6z"/>
		<path class="st1" d="M162.5,349.4c0.1,1.2,0.9,1.9,2.1,1.9c0.9,0,1.6-0.4,2-1.1l1.2,1.2c-0.7,0.9-1.6,1.6-3.2,1.6
			c-2.4,0-3.9-1.7-3.9-4c0-2.3,1.4-4.2,3.7-4.2c2.5,0,3.6,2,3.6,4c0,0.3,0,0.6,0,0.6H162.5z M162.6,348h3.3c0-0.7-0.4-1.5-1.6-1.5
			C163.2,346.4,162.7,347.2,162.6,348z"/>
		<path class="st1" d="M171.7,349.6c-1.5-0.4-2.4-1.1-2.4-2.5c0-1.5,1.2-2.3,2.9-2.3c1.3,0,2.2,0.6,2.9,1.3l-1.1,1.2
			c-0.4-0.5-1-1-1.8-1c-0.7,0-1.1,0.3-1.1,0.7c0,0.4,0.3,0.6,0.8,0.7l1.2,0.3c1.3,0.3,2.3,1.1,2.3,2.4c0,1.4-1.1,2.4-3.1,2.4
			c-1.6,0-2.7-0.8-3.3-1.5l1.2-1.2c0.6,0.8,1.3,1.1,2.3,1.1c0.9,0,1.2-0.4,1.2-0.8c0-0.3-0.2-0.6-0.9-0.8L171.7,349.6z"/>
		<path class="st1" d="M178.4,348.9c0,1.4,0.9,2.4,2.1,2.4c1,0,1.5-0.5,2-1.2l1.2,1.2c-0.6,0.9-1.7,1.7-3.3,1.7
			c-2.2,0-3.9-1.7-3.9-4.1c0-2.4,1.8-4.1,3.9-4.1c1.4,0,2.4,0.6,3.2,1.6l-1.3,1.2c-0.5-0.7-1-1.1-1.9-1.1
			C179.3,346.4,178.4,347.4,178.4,348.9z"/>
		<path class="st1" d="M189.9,346.6c0,0-0.1,0-0.3,0c-1.8,0-2.4,1-2.4,3.2v3.1h-1.8v-7.8h1.8v0.8c0.6-0.7,1.3-1,2.4-1
			c0,0,0.2,0,0.4,0V346.6z"/>
		<path class="st1" d="M192.2,341.4c0.6,0,1.2,0.5,1.2,1.1c0,0.6-0.5,1.2-1.2,1.2c-0.6,0-1.2-0.5-1.2-1.2
			C191,341.9,191.5,341.4,192.2,341.4z M191.3,344.9h1.8v7.8h-1.8V344.9z"/>
		<path class="st1" d="M199.4,353c-1.1,0-1.7-0.4-2.2-0.9v0.7h-1.8v-11.2h1.8v3.9c0.4-0.4,1.2-0.8,2.2-0.8c2.3,0,3.8,1.8,3.8,4.1
			C203.2,351.2,201.6,353,199.4,353z M199.2,351.4c1.4,0,2.1-1.2,2.1-2.5s-0.7-2.5-2.1-2.5c-1.4,0-2.1,1.2-2.1,2.5
			S197.8,351.4,199.2,351.4z"/>
		<path class="st1" d="M206.5,349.4c0.1,1.2,0.9,1.9,2.1,1.9c0.9,0,1.6-0.4,2-1.1l1.2,1.2c-0.7,0.9-1.6,1.6-3.2,1.6
			c-2.4,0-3.9-1.7-3.9-4c0-2.3,1.4-4.2,3.7-4.2c2.5,0,3.6,2,3.6,4c0,0.3,0,0.6,0,0.6H206.5z M206.6,348h3.3c0-0.7-0.4-1.5-1.6-1.5
			C207.3,346.4,206.7,347.2,206.6,348z"/>
		<path class="st1" d="M217.1,344.8c1,0,1.7,0.4,2.2,0.8v-3.9h1.8v11.2h-1.8v-0.7c-0.5,0.5-1.1,0.9-2.2,0.9c-2.3,0-3.8-1.7-3.8-4.1
			C213.3,346.5,214.9,344.8,217.1,344.8z M217.3,346.4c-1.4,0-2.1,1.2-2.1,2.5s0.7,2.5,2.1,2.5c1.4,0,2.1-1.2,2.1-2.5
			S218.7,346.4,217.3,346.4z"/>
		<path class="st1" d="M230.8,353.1h-0.2l-3.5-8.1h2l1.6,4l1.6-4h2L230.8,353.1z"/>
		<path class="st1" d="M236.5,341.4c0.6,0,1.2,0.5,1.2,1.1c0,0.6-0.5,1.2-1.2,1.2c-0.6,0-1.2-0.5-1.2-1.2
			C235.3,341.9,235.9,341.4,236.5,341.4z M235.6,344.9h1.8v7.8h-1.8V344.9z"/>
		<path class="st1" d="M243.1,344.8c1,0,1.7,0.4,2.2,0.8v-3.9h1.8v11.2h-1.8v-0.7c-0.5,0.5-1.1,0.9-2.2,0.9c-2.3,0-3.8-1.7-3.8-4.1
			C239.2,346.5,240.8,344.8,243.1,344.8z M243.2,346.4c-1.4,0-2.1,1.2-2.1,2.5s0.7,2.5,2.1,2.5c1.4,0,2.1-1.2,2.1-2.5
			S244.6,346.4,243.2,346.4z"/>
		<path class="st1" d="M250.8,349.4c0.1,1.2,0.9,1.9,2.1,1.9c0.9,0,1.6-0.4,2-1.1l1.2,1.2c-0.7,0.9-1.6,1.6-3.2,1.6
			c-2.4,0-3.9-1.7-3.9-4c0-2.3,1.4-4.2,3.7-4.2c2.5,0,3.6,2,3.6,4c0,0.3,0,0.6,0,0.6H250.8z M250.9,348h3.3c0-0.7-0.4-1.5-1.6-1.5
			C251.6,346.4,251,347.2,250.9,348z"/>
		<path class="st1" d="M261.7,344.8c2.3,0,4,1.8,4,4.1c0,2.4-1.8,4.1-4,4.1c-2.3,0-4-1.7-4-4.1C257.6,346.5,259.4,344.8,261.7,344.8
			z M261.7,351.3c1.3,0,2.2-1,2.2-2.4c0-1.4-0.9-2.4-2.2-2.4c-1.3,0-2.2,1-2.2,2.4C259.5,350.3,260.4,351.3,261.7,351.3z"/>
	</g>
	<g class="st0">
		<path class="st1" d="M26.2,372.1c0.3,0.6,1,1.4,2.2,1.4c1.2,0,2.1-0.7,2.1-2.2v-0.4c-0.5,0.4-1.1,0.8-2.1,0.8
			c-2.2,0-3.7-1.7-3.7-3.9c0-2.3,1.6-3.9,3.7-3.9c1,0,1.6,0.3,2.1,0.8v-0.6h1.8v7.2c0,2.4-1.5,3.9-3.9,3.9c-2,0-3.1-1.2-3.5-1.7
			L26.2,372.1z M28.5,369.9c1.2,0,2-0.9,2-2.3c0-1.3-0.8-2.3-2-2.3c-1.2,0-2,0.9-2,2.3C26.5,369,27.2,369.9,28.5,369.9z"/>
		<path class="st1" d="M38,363.8c1.1,0,1.7,0.4,2.2,0.9v-0.7H42v7.8h-1.8v-0.6c-0.5,0.4-1.2,0.8-2.2,0.8c-2.3,0-3.8-1.7-3.8-4.1
			C34.2,365.5,35.8,363.8,38,363.8z M38.1,370.4c1.4,0,2.1-1.2,2.1-2.5s-0.7-2.4-2.1-2.4s-2.1,1.1-2.1,2.4S36.7,370.4,38.1,370.4z"
			/>
		<path class="st1" d="M49.2,367.1c0-1-0.5-1.7-1.4-1.7c-1.1,0-1.6,0.8-1.6,1.9v4.5h-1.8v-7.8h1.8v0.7c0.4-0.4,1-0.9,2-0.9
			c1.1,0,1.8,0.4,2.2,1c0.6-0.7,1.5-1,2.4-1c2.1,0,3.1,1.2,3.1,3.5v4.6H54v-4.7c0-1-0.5-1.7-1.4-1.7c-1.1,0-1.6,0.8-1.6,1.9v4.5
			h-1.8V367.1z"/>
		<path class="st1" d="M59.6,368.4c0.1,1.2,0.9,1.9,2.1,1.9c0.9,0,1.6-0.4,2-1.1l1.2,1.2c-0.7,0.9-1.6,1.6-3.2,1.6
			c-2.4,0-3.9-1.7-3.9-4c0-2.3,1.4-4.2,3.7-4.2c2.5,0,3.6,2,3.6,4c0,0.3,0,0.6,0,0.6H59.6z M59.6,367H63c0-0.7-0.4-1.5-1.6-1.5
			C60.3,365.4,59.8,366.2,59.6,367z"/>
		<path class="st1" d="M74.9,363.8c1.1,0,1.7,0.4,2.2,0.9v-0.7h1.8v7.8h-1.8v-0.6c-0.5,0.4-1.2,0.8-2.2,0.8c-2.3,0-3.8-1.7-3.8-4.1
			C71.1,365.5,72.7,363.8,74.9,363.8z M75,370.4c1.4,0,2.1-1.2,2.1-2.5s-0.7-2.4-2.1-2.4s-2.1,1.1-2.1,2.4S73.6,370.4,75,370.4z"/>
		<path class="st1" d="M84.6,363.8c1,0,1.7,0.4,2.2,0.8v-3.9h1.8v11.2h-1.8v-0.7c-0.5,0.5-1.1,0.9-2.2,0.9c-2.3,0-3.8-1.7-3.8-4.1
			C80.8,365.5,82.3,363.8,84.6,363.8z M84.7,365.4c-1.4,0-2.1,1.2-2.1,2.5s0.7,2.5,2.1,2.5c1.4,0,2.1-1.2,2.1-2.5
			S86.1,365.4,84.7,365.4z"/>
		<path class="st1" d="M94.3,363.8c1,0,1.7,0.4,2.2,0.8v-3.9h1.8v11.2h-1.8v-0.7c-0.5,0.5-1.1,0.9-2.2,0.9c-2.3,0-3.8-1.7-3.8-4.1
			C90.4,365.5,92,363.8,94.3,363.8z M94.4,365.4c-1.4,0-2.1,1.2-2.1,2.5s0.7,2.5,2.1,2.5c1.4,0,2.1-1.2,2.1-2.5
			S95.8,365.4,94.4,365.4z"/>
		<path class="st1" d="M99.9,366.7h4v1.7h-4V366.7z"/>
		<path class="st1" d="M109.2,363.8c2.3,0,4,1.8,4,4.1c0,2.4-1.8,4.1-4,4.1c-2.3,0-4-1.7-4-4.1C105.2,365.5,106.9,363.8,109.2,363.8
			z M109.2,370.3c1.3,0,2.2-1,2.2-2.4c0-1.4-0.9-2.4-2.2-2.4c-1.3,0-2.2,1-2.2,2.4C107,369.3,107.9,370.3,109.2,370.3z"/>
		<path class="st1" d="M116.9,371.8h-1.8v-7.8h1.8v0.6c0.4-0.4,1.1-0.8,2-0.8c1.9,0,3.1,1.2,3.1,3.5v4.6h-1.8v-4.6
			c0-1.1-0.5-1.8-1.6-1.8c-1.1,0-1.7,0.8-1.7,2V371.8z"/>
		<path class="st1" d="M129.1,369v-3.4H128v-1.6h1.2v-2.2h1.8v2.2h1.9v1.6h-1.9v3.2c0,1.1,0.3,1.4,1.3,1.4c0.2,0,0.6,0,0.6,0v1.6
			c0,0-0.4,0-1,0C129.8,371.8,129.1,371,129.1,369z"/>
		<path class="st1" d="M139,365.6c0,0-0.1,0-0.3,0c-1.8,0-2.4,1-2.4,3.2v3.1h-1.8v-7.8h1.8v0.8c0.6-0.7,1.3-1,2.4-1c0,0,0.2,0,0.4,0
			V365.6z"/>
		<path class="st1" d="M141.4,368.4c0.1,1.2,0.9,1.9,2.1,1.9c0.9,0,1.6-0.4,2-1.1l1.2,1.2c-0.7,0.9-1.6,1.6-3.2,1.6
			c-2.4,0-3.9-1.7-3.9-4c0-2.3,1.4-4.2,3.7-4.2c2.5,0,3.6,2,3.6,4c0,0.3,0,0.6,0,0.6H141.4z M141.5,367h3.3c0-0.7-0.4-1.5-1.6-1.5
			C142.2,365.4,141.7,366.2,141.5,367z"/>
		<path class="st1" d="M152.1,363.8c1.1,0,1.7,0.4,2.2,0.9v-0.7h1.8v7.8h-1.8v-0.6c-0.5,0.4-1.2,0.8-2.2,0.8c-2.3,0-3.8-1.7-3.8-4.1
			C148.3,365.5,149.9,363.8,152.1,363.8z M152.3,370.4c1.4,0,2.1-1.2,2.1-2.5s-0.7-2.4-2.1-2.4c-1.4,0-2.1,1.1-2.1,2.4
			S150.8,370.4,152.3,370.4z"/>
		<path class="st1" d="M158.6,369v-3.4h-1.2v-1.6h1.2v-2.2h1.8v2.2h1.9v1.6h-1.9v3.2c0,1.1,0.3,1.4,1.3,1.4c0.2,0,0.6,0,0.6,0v1.6
			c0,0-0.4,0-1,0C159.3,371.8,158.6,371,158.6,369z"/>
		<path class="st1" d="M168.9,367.1c0-1-0.5-1.7-1.4-1.7c-1.1,0-1.6,0.8-1.6,1.9v4.5H164v-7.8h1.8v0.7c0.4-0.4,1-0.9,2-0.9
			c1.1,0,1.8,0.4,2.2,1c0.6-0.7,1.5-1,2.4-1c2.1,0,3.1,1.2,3.1,3.5v4.6h-1.8v-4.7c0-1-0.5-1.7-1.4-1.7c-1.1,0-1.6,0.8-1.6,1.9v4.5
			h-1.8V367.1z"/>
		<path class="st1" d="M179.3,368.4c0.1,1.2,0.9,1.9,2.1,1.9c0.9,0,1.6-0.4,2-1.1l1.2,1.2c-0.7,0.9-1.6,1.6-3.2,1.6
			c-2.4,0-3.9-1.7-3.9-4c0-2.3,1.4-4.2,3.7-4.2c2.5,0,3.6,2,3.6,4c0,0.3,0,0.6,0,0.6H179.3z M179.4,367h3.3c0-0.7-0.4-1.5-1.6-1.5
			C180,365.4,179.5,366.2,179.4,367z"/>
		<path class="st1" d="M188.3,371.8h-1.8v-7.8h1.8v0.6c0.4-0.4,1.1-0.8,2-0.8c1.9,0,3.1,1.2,3.1,3.5v4.6h-1.8v-4.6
			c0-1.1-0.5-1.8-1.6-1.8c-1.1,0-1.7,0.8-1.7,2V371.8z"/>
		<path class="st1" d="M195.9,369v-3.4h-1.2v-1.6h1.2v-2.2h1.8v2.2h1.9v1.6h-1.9v3.2c0,1.1,0.3,1.4,1.3,1.4c0.2,0,0.6,0,0.6,0v1.6
			c0,0-0.4,0-1,0C196.5,371.8,195.9,371,195.9,369z"/>
		<path class="st1" d="M210.2,360.4v1.7c0,0-0.2,0-0.4,0c-1.1,0-1.6,0.4-1.6,1.6v0.3h1.9v1.6h-1.9v6.2h-1.8v-6.2h-1.2v-1.6h1.2v-0.6
			c0-2,1.1-3,3.2-3C209.9,360.4,210.2,360.4,210.2,360.4z"/>
		<path class="st1" d="M214.8,363.8c2.3,0,4,1.8,4,4.1c0,2.4-1.8,4.1-4,4.1c-2.3,0-4.1-1.7-4.1-4.1
			C210.7,365.5,212.5,363.8,214.8,363.8z M214.8,370.3c1.3,0,2.2-1,2.2-2.4c0-1.4-0.9-2.4-2.2-2.4c-1.3,0-2.2,1-2.2,2.4
			C212.6,369.3,213.5,370.3,214.8,370.3z"/>
		<path class="st1" d="M225.2,365.6c0,0-0.1,0-0.3,0c-1.8,0-2.4,1-2.4,3.2v3.1h-1.8v-7.8h1.8v0.8c0.6-0.7,1.3-1,2.4-1
			c0,0,0.2,0,0.4,0V365.6z"/>
		<path class="st1" d="M241,371.8h-2l-1.1-2.4h-4.4l-1.1,2.4h-2l5.2-11.5h0.2L241,371.8z M234.1,367.6h3l-1.5-3.3L234.1,367.6z"/>
		<path class="st1" d="M242.4,360.6h3.5c3,0,6.1,1.3,6.1,5.5c0,4.3-3,5.7-6.1,5.7h-3.5V360.6z M244.3,370.1h1.2c2.4,0,4.5-0.8,4.5-4
			c0-3.1-2.1-3.8-4.5-3.8h-1.2V370.1z"/>
		<path class="st1" d="M261.2,366.9h-5.3v4.8H254v-11.2h1.9v4.6h5.3v-4.6h1.9v11.2h-1.9V366.9z"/>
		<path class="st1" d="M265.7,360.6h3.5c3,0,6.1,1.3,6.1,5.5c0,4.3-3,5.7-6.1,5.7h-3.5V360.6z M267.6,370.1h1.2c2.4,0,4.5-0.8,4.5-4
			c0-3.1-2.1-3.8-4.5-3.8h-1.2V370.1z"/>
	</g>
</g>
</svg>
